/* XPM */
static char *result[] = {
/* columns rows colors chars-per-pixel */
"74 72 159 2 ",
"   c #010101",
".  c #0B0405",
"X  c #070904",
"o  c #0C0C06",
"O  c #0F0508",
"+  c #0C0C0C",
"@  c #110707",
"#  c #13070B",
"$  c #150808",
"%  c #1C0C0C",
"&  c #15140B",
"*  c #14190B",
"=  c #1E0C11",
"-  c #131313",
";  c #1B1C1B",
":  c #230E0E",
">  c #220D13",
",  c #280F18",
"<  c #2B1212",
"1  c #2C121A",
"2  c #331515",
"3  c #381717",
"4  c #33141E",
"5  c #3C1919",
"6  c #19210F",
"7  c #1C2311",
"8  c #1F2811",
"9  c #1E1E30",
"0  c #3A1622",
"q  c #3F1925",
"w  c #242424",
"e  c #2D2D2D",
"r  c #302F2F",
"t  c #212132",
"y  c #292936",
"u  c #2E2E38",
"i  c #333232",
"p  c #36363D",
"a  c #3B3B3D",
"s  c #421B1B",
"d  c #4A1E1E",
"f  c #45271E",
"g  c #421A26",
"h  c #49172E",
"j  c #471B2A",
"k  c #4B1C2C",
"l  c #521C31",
"z  c #5A1F31",
"x  c #4E2121",
"c  c #542223",
"v  c #5B2626",
"b  c #5B252A",
"n  c #5E2828",
"m  c #4E3424",
"M  c #542132",
"N  c #5A2433",
"B  c #572738",
"V  c #572839",
"C  c #592B3C",
"Z  c #5A3034",
"A  c #622727",
"S  c #602927",
"D  c #642A2A",
"F  c #6C2E2E",
"G  c #702F2F",
"H  c #602733",
"J  c #662A32",
"K  c #6C2D33",
"L  c #712F32",
"P  c #673834",
"I  c #763232",
"U  c #7A3333",
"Y  c #753933",
"T  c #38421E",
"R  c #3C4E22",
"E  c #435626",
"W  c #41413F",
"Q  c #634037",
"!  c #764435",
"~  c #65553A",
"^  c #715F3A",
"/  c #4D632B",
"(  c #566F31",
")  c #5B7533",
"_  c #5E7935",
"`  c #6C6B3C",
"'  c #6D733E",
"]  c #767E3F",
"[  c #3F3F42",
"{  c #5B2F40",
"}  c #5D3344",
"|  c #5F3748",
" . c #5F3849",
".. c #613B4C",
"X. c #434343",
"o. c #474749",
"O. c #49494B",
"+. c #4D4D53",
"@. c #505057",
"#. c #56565F",
"$. c #644253",
"%. c #575761",
"&. c #595965",
"*. c #5D5D69",
"=. c #656576",
"-. c #696977",
";. c #676779",
":. c #68687A",
">. c #77777F",
",. c #813435",
"<. c #893636",
"1. c #853838",
"2. c #8F393C",
"3. c #943B3C",
"4. c #9B3D3E",
"5. c #93453D",
"6. c #82603C",
"7. c #853D40",
"8. c #A73F42",
"9. c #8B4C47",
"0. c #944E49",
"q. c #8E524A",
"w. c #90514A",
"e. c #A64242",
"r. c #AA4343",
"t. c #AC4B46",
"y. c #AD4E49",
"u. c #B34747",
"i. c #B84A49",
"p. c #A45B46",
"a. c #AE524A",
"s. c #B1524A",
"d. c #B65E50",
"f. c #8E6241",
"g. c #887341",
"h. c #927946",
"j. c #B66051",
"k. c #BB6B57",
"l. c #BD745B",
"z. c #C26E58",
"x. c #C0725A",
"c. c #C37C5F",
"v. c #C17E60",
"b. c #6E813C",
"n. c #6C8A3D",
"m. c #74823F",
"M. c #70903F",
"N. c #7C8441",
"B. c #748B41",
"V. c #749642",
"C. c #769943",
"Z. c #7B9E45",
"A. c #C78162",
"S. c #CA8564",
"D. c #CC8966",
"F. c #D18B67",
"G. c #7A7A81",
"H. c #878787",
"J. c #888887",
/* pixels */
"H.J.H.J.J.G.-.=.=.=.=.=.=.=.=.=.=.=.=.=.=.=.=.=.=.=.=.=.%.*.G.*.G.*.;.;.*.;.;.;.G.&.G.G.&.;.;.;.*.;.;.;.=.=.=.=.=.=.=.=.=.=.=.=.=.=.=.=.=.=.;.*.O.[ ",
"H.H.H.H.J.G.-.:.=.=.=.=.=.=.=.=.=.=.=.=.=.=.=.=.=.=.=.=.G.%.&.;.;.;.;.;.;.;.;.*.&.G.&.*.;.;.;.;.;.;.;.*.=.=.=.=.=.=.=.=.=.=.=.=.=.=.=.=.=.*.;.*.O.X.",
"H.H.J.H.H.>.:.=.=.=.=.=.=.=.=.=.=.=.=.=.=.=.=.=.=.=.=.=.G.G.*.G.;.;.;.;.;.;.;.;.G.*.*.G.;.G.*.;.;.;.;.;.;.=.;.;.=.=.=.=.G.=.=.=.;.;.=.=.=.=.=.%.O.X.",
"G.G.G.G.G.-.*.&.&.&.&.&.&.%.%.#.&.%.&.%.%.%.&.%.&.%.%.%.%.%.%.%.@.%.%.%.%.%.%.%.&.%.%.&.@.%.%.%.%.%.%.%.%.&.%.&.#.&.&.#.@.%.%.%.&.%.%.%.%.%.#.+.[ p ",
"=.;.=.=.=.*.@.O.o.X.X.X.X.X.X.o.o.X.o.o.o.+.o.X.o.o.o.o.o.o.o.o.o.o.o.o.p +.p +.o.o.o.[ o.o.o.o.p +.+.o.o.[ o.o.o.o.o.o.[ o.o.o.X.o.o.X.o.[ [ [ p t ",
"=.=.=.=.;.*.O.a X.X.X.X.X.X.X.X.X.X.[ X.[ R X.X.[ [ [ o.[ X. .R [ [ [ [ p +.[ [ R X. .[ R [ [ [ p p [ o.[ [ [ [ [ [ X.[ [ [ [ [ X.X.X.X.X.[ [ [ y t ",
"=.=.=.=.;.*.o.[ X.X.X.X.X.X.X.X.X.[ X.X. .[ X.X.X.[ X.R X.X.X.X.X.[ [ [ [ [ [ [ X.X.o.[ o.o.X.X.+.o.[ [ o.[ o.o.X.X.X.X.X.X.[ o.X.X.X.X.X.[ o.[ y t ",
"=.=.=.=.;.*.O.X.X.X.X.X.X.X.X.X.o.X.X.X.X.[ X.X.X.o.o.o.X.O.X.O.O.O.o.o.+.o.o.+.o.o.[ o.[ [ X.X.[ [ o.[ [ o.o.[ [ o.X.X.X.X.X.X.X.X.X.X.o.[ [ [ y 9 ",
"=.=.=.=.:.&.o.X.X.X.X.X.X.X.X.X.X.X.X.X.X.X.X.X.X.a a a p a a a R [ p p a a a a a a W X.X.X.X.X.X.X.X.X.O.X.X.X.X.X.X.X.X.X.X.X.X.X.X.X.X.X.o.[ y 9 ",
"=.=.=.=.:.*.o.X.X.X.X.o.X.X.o.X.X.o.X.o.X.X.X.X.W w ; ; ; ; ; 7 9 - ; ; ; ; * ; ; e R o.[ X.X.X.X.X.O.X.W X.X.X.o.X.o.X.X.X.X.o.X.X.o.X.X.[ [ [ y 9 ",
"=.;.=.=.:.*.O.X.X.o.X.X.X.X.X.X.X.X.X.X.X.X.X.X.W -                               ; [ +.X.X.[ o.X.X.X.X.X.X.X.o.X.X.X.X.X.X.X.X.X.X.X.X.X.[ o.[ y 9 ",
"=.=.=.=.:.&.o.W X.X.X.X.X.X.X.X.X.X.X.o.X.X.X.X.R -   X * 6 6 6 7 7 7 7 6 6 *     - w p [ [ o.[ X.X.X.W O.X.X.X.X.X.X.X.o.X.X.X.X.o.X.X.X.X.X.R y 9 ",
";.=.=.=.:.*.o.X.X.X.X.X.o.X.X.X.X.X.X.X.X.X.X.X.} -   6 E _ _ _ _ _ _ _ ) ( R X   O + ; u W o.[ X.X.X.X.X.X.X.X.X.O.X.W X.X.X.X.X.X.X.X.[  .[ [ y 9 ",
"=.-.=.=.:.*.o.X.X.X.X.O.X.X.X.X.X.X.X.X.X.X.X.X.[ -   8 ( C.C.Z.Z.Z.Z.Z.Z.V.( X       + ; a } R W X.X.X.X.X.X.X.X.X.X.O.X.X.X.X.o.X.X.o.[ [ o.[ y 9 ",
"=.=.=.=.-.*.O.X.X.X.X.X.X.X.X.X.X.X.X.X.X.X.X.X.[ -   - T / _ M.C.V.V.V.C.V.) o         - w e e e u R O.X.X.X.X.X.X.X.X.O.X.o.X.X.X.X.X.[ o.X.R y 9 ",
"=.=.=.=.-.*.O.W W O.X.X.X.X.X.O.X.X.X.X.X.X.X.X.[ -       X T n.Z.V.V.C.C.C.) o                 X - [ o.X.X.X.W X.X.X.X.W X.X.X.X.X.o.X.X.[ X.a y 9 ",
"=.:.=.=.:.&.o.X.X.X.X.X.O.X.X.O.W X.X.X.X.X.X.X.X.+       X T m.Z.V.C.C.C.C._ &                   + i [ X.X.X.X.X.X.X.X.X.X.X.X.X.X.o.X.X.X.o.a y 9 ",
"=.=.=.=.:.*.o.W X.X.X.X.X.X.X.X.X.X.X.X.X.X.X.W a +       X f 6.h.N.V.V.V.V.] m f s s s s 5 < $     - w r X.X.X.X.X.X.X.X.X.X.X.X.X.X.X.X.X.X.a y 9 ",
"=.=.=.=.:.&.O.X.X.o.X.X.X.X.X.W X.X.X.X.X.X.X.X.a +       . f 5.p.g.V.C.C.C.m.! I G G G F G c <       X ; [ o.X.X.[ X.X.X.X.X.o.X.o.X.X.X.X.X.a y 9 ",
"=.:.=.=.:.*.o.X.X.X.X.X.X.X.X.O.X.X.X.X.X.W W a e +   . $ : A 4.t.f.B.V.V.V.N.! U U U U U ,.F 5 # .     - r C X.X.X.X.X.X.X.X.X.X.X.X.X.X.X.X.a y 9 ",
"=.=.=.=.:.*.O.X.X.X.X.X.X.X.X.X.X.X.X.X.X.W e - +     : c ,.4.r.e.9.Q ~ b.V.] Y I L I I I I G D c 2 .   X + - i [ X.X.[ X.X.X.X.X.X.X.X.X.X.X.p y 9 ",
"=.=.=.=.:.&.o.X.X.X.X.o.X.X.X.X.X.X.X.X.O.W ; X       2 <.i.r.r.e.U l Z ' V.] Y I I I I I I U U U n @         w X.o.o.[ X.X.X.X.X.X.o.X.X.X.X.[ y 9 ",
"=.;.=.=.:.&.O.X.X.X.X.X.X.X.X.X.X.X.X.a i e -     : 2 v 4.u.r.s.a.1.h N ~ ` ^ I G I I I L U I U U F 2 : #     ; e p [ o.X.X.X.X.X.X.X.X.X.X.X.a y 9 ",
"=.=.=.=.:.*.o.[ o.X.X.X.X.X.X.X.X.X.X.i ; + .   . x I 3.8.8.s.z.k.9.k N Z P P L I I I I I I I I I I D c <     o + 7 T o.X.X.X.X.X.X.X.X.X.X.X.a y 9 ",
";.;.=.=.:.&.O.X.X.X.X.X.X.X.X.X.X.X.W w X     . % ,.r.u.r.e.j.S.v.q.h M k l N J K I I I I I I I I I U U d $ .     - w o.X.X.X.X.X.X.X.X.X.X.X.[ y 9 ",
"=.=.=.=.:.&.O.X.X.X.X.X.X.X.X.X.a i w - .   $ 3 c 3.8.r.s.d.k.F.v.q.h M B M N N K I I I I I I I I I I I S 3 : .   X - y p W X.X.X.X.X.X.X.X.X.a y 9 ",
"=.;.=.=.:.*.o.W X.X.X.X.X.X.W o.i ; X     . d 4.r.8.8.s.x.S.S.F.v.q.h M M M M M N K L I I U I I I I I I I G G < X     X - a X.X.X.X.X.X.X.X.X.a y 9 ",
";.=.=.=.:.*.O.X.X.X.o.X.X.X.X.O.r -     . : A r.r.r.t.d.c.D.S.F.v.q.h M M M M M N N J L U L I I I I I I I U U s # .     + e a X.X.X.X.X.X.[ X.[ y 9 ",
"=.;.=.=.;.*.O.X.X.X.X.X.X.X.W o.r - . $ d A <.r.r.s.j.x.S.D.S.F.v.q.h M M M M M M M H K I I U I I I I I I I U v s < @   X - w i X.X.X.X.X.X.X.a y 9 ",
"-.=.=.=.;.&.o.W X.X.o.X.X.X.X.O.r - . 2 4.r.r.e.t.z.A.S.S.D.A.F.v.w.l l M M M M M M N H K I I I U I I U U I I G I v :       X ; X.X.X.X.X.X.X.a y 9 ",
"=.=.=.=.;.*.o.X.o.X.X.X.X.X.X.o.r - . s 8.r.r.r.r.k.c.A.S.S.A.S.l.0.l z N N M M M N N H K I I I I U I U I I I I U S <         ; X.X.X.X.X.X.X.a y 9 ",
"=.=.=.=.:.*.O.W X.X.X.X.X.X.X.o.i - . s r.r.8.r.r.t.s.s.s.s.a.s.y.e.2.8.4.7.U J J K K I I I I I I I I I I I I I U S <         - X.X.X.X.X.X.X.a y 9 ",
";.;.&.G.G.&.o.[ X.X.o.X.X.X.W O.i & . s e.u.e.r.r.r.r.r.e.r.r.r.e.r.r.r.r.8.3.L G I U I I I I I Y I I I I I I I U D <         - o.X.X.X.X.X.X.[ y 9 ",
";.;.;.*.G.*.o. .X.X.X.X.X.W W O.r + @ s r.r.e.r.e.r.e.r.8.r.e.r.e.r.r.r.r.r.4.L I I I I I I I I L I I I I I I L U S <       X - X.X.X.X.X.X.X.a y 9 ",
"*.G.G.%.*.%.o.[ o.W X.X.X.X.W O.i - . s e.r.8.r.r.r.r.r.r.r.r.r.r.r.r.r.r.e.4.U I I I I I I I I I I I I I I I I U D <         - X.X.X.X.X.X.X.a y 9 ",
";.*.%.G.G.&.+.R W o.o.X.X.X.W O.r - @ 5 8.r.8.r.r.r.r.u.r.r.r.r.r.r.r.r.r.e.4.U I I U I U U U U U U U U U U I I U D ,         - X.X.X.X.X.[ X.a y 9 ",
";.;.*.;.-.*.O.X.o.W o.W X.X.W O.r - . 3 3.3.3.3.3.3.3.3.3.3.3.5.3.3.3.3.3.2.,.K F J J J K J J H J J J J K J J H K b >       . - o.X.X.X.X.[ X.p y 9 ",
";.;.;.;.-.&.O.X.W o.W o.X.X.X.O.r - . 2 1.U U U U U U U U Y U U I U U U U U I H N N N M M B M M B B l B N N M M H k >         - X.X.X.X.X.X.X.[ y 9 ",
";.*.;.;.-.*.+.W o.W o.W X.X.W O.e - . 2 U U I I I I I I I I L I I I I I G I L N M l M M B M M M M l M M l M M M N k >       X - o.X.X.[ X.X.[ [ y 9 ",
";.G.*.;.-.&.+.W W o.W o.X.X.W O.r % . < I I I I I U I I I I I U I I I U I U K N M M M M M M M M M M M M M M M M N k =       . - X.X.X.X.X.X.[ [ y 9 ",
";.;.;.;.;.&.p p X.X.o.X.X.X.W O.r - X < U U I I I I U U I I I U I U I I I I L B l M M M l M M l M M M M M M M l N j =         - o.[ X.X.X.[ o.[ y 9 ",
";.;.;.;.G.+.+.+.X.X.X.X.X.X.W O.e - . < I I I I U I I I U I U U I I U I I I L B M M M l M B B M M M M M M M M l B j =       X - o.X.X.X.X.X.[ [ y 9 ",
"*.;.;.*.G.@.+.p o.X.X.X.X.W X.O.e + . < G U I I U I I I I U I I I U I I I U K M M M M M V }  ... . .| } C M M M N j =         - X.X.X.X.X.X.X.[ y 9 ",
";.;.;.;.*.G.+.p X.X.X.X.o.W W O.i - . < F I G I I I U I I Y U I I U I I I I L M M M M M { ..$.$.$.$.$.$.C M l M l g =         - o.X.[ X.X.[ o.R y 9 ",
";.;.;.*.G.&.p p X.X.X.X.X.X.W o.r -   % d v F I I I I I I I I U I U L I I I L B M M M M } $.$.$.$.$.$.} C M M k g 1 #         - o.X.X.X.X.[  .[ y 9 ",
";.;.;.;.*.&.+.+.X.X.X.o.X.X.X.o.r -     . % d I U L I I I I I I I I Y I I I K M M M M M } $.$.$.$.$.C B M l M 4 #           . - X.X.X.X.[ [ [ [ y 9 ",
";.;.;.;.G.@.+.p X.X.X.X.X.X.X.o.i - X     . 5 U ,.U I I I I I I U U I I I U L M M M M M } $.$.$.$. .V M M N N > .             - o.X.X.X.o.[ X.R y 9 ",
"G.*.;.;.*.G.+.p o.X.X.X.X.X.X.X.a e 1 +     $ 5 f F I I I I I I I I I I I I L V M M l B } $.$...} C M M j 0 , .               ; X.X.X.X.X.X.X.p y 9 ",
"*.;.;.*.*.&.p +.p +.+.[ o.[ o.[ X.a p ; X     @ : n I U I I I I I U I I I I I M M M M M } $. .} B M M M 0 # .                 - X.X.X.X.X.X.o.a y 9 ",
";.;.;.;.G.&.+.p o.p [ [ [ o.o.[ X.X.W e X         d D I I U I I I I I I I U K N M M M M C  .| V M M M j ,                     - o.X.X.X.X.X.X.a y 9 ",
";.*.;.;.G.+.+.o.o.+.[ o.X.X.[ o.X.X.X.w           : 2 x F U I I I I I I I I K M M M M M B V B M M M 1 = #                   X - X.X.X.[ X.[ X.a y 9 ",
";.G.*.;.&.G.+.p [ [ o.[ X.X.X.[ X.X.X.e X             < D 1.U I I I I I I I K M M l M M M l M N M x #                         ; X.X.X.X.X.X.o.a y 9 ",
";.;.;.;.;.%.+.p o.X.X.o.X.X.X.X.X.X.X.r - + X         $ d D F I I I I I I I K N M M M M M M l M q 4 .                     X - w o.X.X.X.X.X.[ [ y 9 ",
";.;.;.*.G.&.+.p X.X.X.X.o.X.X.X.X.X.X.a r w -         . % < x G I I U I U I K M M M M M M M k 4 = +                     . ; r p X.[ X.X.X.[ [ [ y 9 ",
";.*.;.;.;.&.p +.X.X.X.X.X.o.X.X.X.X.X.X.o.a ; X             2 S I I I I U I K V M M M l M M g =                         - i o.X.X.X.X.X.X.[ [ [ y 9 ",
";.;.;.;.;.%.+.p X.X.X.X.X.X.X.X.X.X.X.X.X.W e - +           : d c v v v c c M x q x q q q g 1 #                       + w a X.X.X.X.X.X.X.X.[ [ y 9 ",
"=.=.=.=.;.*.O.X.o.X.X.X.X.[ o.X.X.X.X.X.X.X.X.a i +               .     .   .           .                         + w R } [ o.[ X.o.X.X.X.X.o.[ t 9 ",
"=.=.=.=.;.*.O.[ X.X.X.o.X.o.X.X.X.X.X.X.X.X.X.X.a -                                                               + e o.[ o.X.X.X.X.X.X.[ X.[ [ [ 9 ",
";.=.=.=.;.*.O.X.X.X.X.X.X.X.X.X.X.X.X.X.W X.X.X.X.e w -                                                       + - e a X.[ X.X.X.X.X.X.X.X.[ o.[ 9 9 ",
";.=.=.=.;.*.O.[ o.X.X.X.X.X.o.X.X.X.o.X.X.X.X.X.X.X.a w +                                                     ; p W W W X.X.X.X.X.o.X.X.X.X.X.R t 9 ",
"=.;.=.=.;.*.o.X.X.X.o.X.X.X.o.X.X.X.o.X.X.X.X.X.X.X.X.i - X                                                 X e [ o.X.X.X.X.X.X.X.X.X.o.[ [ [ [ [ 9 ",
"=.=.=.=.;.*.O.[ X.X.X.X.X.X.X.X.X.X.X.X.X.X.X.X.X.X.X.a r e - X                                         - t u a [ X.X.X.X.X.X.X.o.X.X.X.[ [ [ [ 9 9 ",
"=.=.=.=.;.*.+.o.X.X.X.X.X.o.X.X.X.o.X.X.X.X.X.X.X.X.X.X.X.W w +                                         - T X.X.X.X.X.X.X.X.X.X.X.X.X.X. .[ [ [ t 9 ",
"=.=.=.=.;.*.O.R o.X.X.X.X.X.X.X.X.X.X.X.X.X.X.X.X.X.X.X.X.X.u ; + - - + - - + - - + - - + - - - + + - - w [ o.o.[ X.X.X.X.X.X.X.X.X.X.X.[ [ [ [ [ 9 ",
"=.=.=.=.=.&.O.X.o.X.X.X.X.o.X.X.X.X.X.X.X.X.X.X.X.X.[ X.X.o.a i u y r r r r r r r r r r e r r r r e r i p R o.o.X.X.X.X.X.X.X.X.X.X.X.X.X.X.X.a 9 9 ",
"=.=.=.=.;.&.O.[ X.[ X.X.X.[ X.X.X.X.X.X.X.X.X.X.X.X.X.X.X.[ o.o.O.O.o.o.O.O.O.O.O.O.O.O.O.O.O.O.O.O.o.O.o.X.o.[ X.X.X.X.X.X.X.X.X.X.X.X.[ X.X.a [ 9 ",
"=.=.=.=.;.&.O.X.X.X.[ p X.X.X.X.X.X.X.X.[ X.o.[ X.X.X.X.X.X.X.[ R o.[ X.W W X.W [ a R o.[ X.X.[ R X.[ [ [ X.[ [ X.X.X.[ X.X.X.X.X.X.X.X.X.X.X.a t 9 ",
"=.=.=.=.;.&.O.X.o.X.X.[ X.X.X.X.X.X.X.X.o.[ o.[ X.X.X.X.X.X.X.X.X.X.X.X.X.X.X.X.X.} o.o.X.X.X.X.o.o.o.X.X.X.X.o.X.X.X.X.X.X.X.X.X.X.X.X.X.X.X.a 9 9 ",
"=.=.=.=.=.%.O.[ [ [ [ [ [ [ [ [ [ X.[ [ [ [ [ [ X.X.[ X.X.X.[ X.X.X.[ X.[ X.X.[ [ X.[ X.[ o.[ X.[ X.X.[ X.[ [ X.[ X.[ [ X.[ X.[ [ [ [ [ X.R [ [ [ 9 ",
"#.#.#.#.#.O.[ p [ [ [ [ [ [ [ [ [ T [ [ [ [ [ [ p p p p p p p p p p p p p p p p u [ u [ p p p p [ p p p [ p p p u [ [ p [ u [ p [ [ [ [ p p [ t t 9 ",
"R  .X.X.X.a u t t t 9 9 9 9 t t 9 9 t t 9 9 9 t t t t t t t t t t t t t t t t t t t t t t t t t 9 9 t t t t t t t t t t 9 9 t t 9 9 t t t 9 9 9 9 9 ",
"[ [ X.X.X.[ y t t t 9 9 9 9 t t 9 t t t 9 9 9 9 t t t t t t t t t t t t t t t t t t t t t t t t t t t t t t t t t t t t t t t t 9 9 t t t 9 9 9 9 9 "
};
