/* XPM */
static char *result[] = {
/* columns rows colors chars-per-pixel */
"50 50 187 2 ",
"   c #141625",
".  c #141623",
"X  c #151724",
"o  c #675D2C",
"O  c #B8A52D",
"+  c #464530",
"@  c #161525",
"#  c #151726",
"$  c #28272C",
"%  c #CBA216",
"&  c #FBDE2B",
"*  c #E2C82D",
"=  c #282828",
"-  c #141527",
";  c #131524",
":  c #312E29",
">  c #98791E",
",  c #CBA214",
"<  c #D8AC17",
"1  c #343428",
"2  c #1B1D29",
"3  c #655426",
"4  c #836821",
"5  c #6A5C2B",
"6  c #191B27",
"7  c #141726",
"8  c #151827",
"9  c #292D30",
"0  c #BAB7AE",
"q  c #1A2030",
"w  c #191C2D",
"e  c #1F222B",
"r  c #202123",
"t  c #272928",
"y  c #CACBCD",
"u  c #171E31",
"i  c #161C2C",
"p  c #24272E",
"a  c #414247",
"s  c #858688",
"d  c #A09F9D",
"f  c #343432",
"g  c #161B17",
"h  c #242827",
"j  c #CECECE",
"k  c #181D30",
"l  c #131625",
"z  c #171A29",
"x  c #23262B",
"c  c #2C2C2C",
"v  c #32312D",
"b  c #666762",
"n  c #D2D2D2",
"m  c #CECECC",
"M  c #8A8A88",
"N  c #111B13",
"B  c #232726",
"V  c #CED0CF",
"C  c #171E30",
"Z  c #181C28",
"A  c #1A1F25",
"S  c #1E2225",
"D  c #242321",
"F  c #6B6A68",
"G  c #929091",
"H  c #A5A5A3",
"J  c gray73",
"K  c #1E2422",
"L  c #171C2F",
"P  c #141B25",
"I  c #262827",
"U  c #A3A2A0",
"Y  c #686964",
"T  c #60625F",
"R  c #141615",
"E  c #40474D",
"W  c #686C6D",
"Q  c #131716",
"!  c #0E1412",
"~  c #222625",
"^  c #CDCFCC",
"/  c #141B2B",
"(  c #111723",
")  c #0F1418",
"_  c #0B1411",
"`  c #1F2322",
"'  c #13182B",
"]  c #232730",
"[  c #CCCECD",
"{  c #16192A",
"}  c #262835",
"|  c #272935",
" . c #131426",
".. c #272B36",
"X. c #282B3A",
"o. c #D0D0D2",
"O. c #262C3A",
"+. c #CECFD1",
"@. c #252B37",
"#. c #CDCFCE",
"$. c #272936",
"%. c #282834",
"&. c #CDCDCD",
"*. c gray80",
"=. c #CBCDCC",
"-. c #C6C6C6",
";. c #C0C0C0",
":. c #C1C0BE",
">. c #272733",
",. c #BAB9B7",
"<. c #252531",
"1. c #B2B1AF",
"2. c #242430",
"3. c #A9A5A2",
"4. c #151628",
"5. c #23232F",
"6. c #9D9892",
"7. c #22222C",
"8. c #888276",
"9. c #20202A",
"0. c #6F665F",
"q. c #222129",
"w. c #4A382C",
"e. c #56483B",
"r. c #27262E",
"t. c #6E4F3A",
"y. c #916D4B",
"u. c #594638",
"i. c #1F1D2A",
"p. c #5E4938",
"a. c #644938",
"s. c #1F1D28",
"d. c #392F2E",
"f. c #714623",
"g. c #B27642",
"h. c #65503D",
"j. c #B77038",
"k. c #BF743B",
"l. c #C38147",
"z. c #644E41",
"x. c #C68545",
"c. c #C57D42",
"v. c #2E272E",
"b. c #3B3132",
"n. c #734825",
"m. c #834921",
"M. c #A06B37",
"N. c #AA6430",
"B. c #B36733",
"V. c #BF7D41",
"C. c #C57F43",
"Z. c #BB6E36",
"A. c #BB793F",
"S. c #29242A",
"D. c #1D1D29",
"F. c #5E4024",
"G. c #644121",
"H. c #6E4A26",
"J. c #734C25",
"K. c #7C5228",
"L. c #845E2F",
"P. c #895D30",
"I. c #895A2E",
"U. c #684A2E",
"Y. c #161825",
"T. c #131522",
"R. c #5F4427",
"E. c #7E4822",
"W. c #945529",
"Q. c #AD6831",
"!. c #CE9552",
"~. c #C5733B",
"^. c #C57339",
"/. c #C77B3F",
"(. c #7E5B3B",
"). c #161928",
"_. c #604527",
"`. c #834E26",
"'. c #9B5D2C",
"]. c #B27036",
"[. c #D09A54",
"{. c #C8783D",
"}. c #CB7B3E",
"|. c #CC8243",
" X c #7F5D3A",
".X c #151925",
"XX c white",
/* pixels */
"                                .         .     X o O +   @     #                                   ",
"                                                $ % & * =   -                                       ",
"                                      ;     # @ : > , < 1                                           ",
"                                  ;         #   2 3 4 5 6           7                               ",
"                                  -         #   8 9 0 q       7 7           ;                       ",
"                                    ;     # w e r t y u       7 8           ;                       ",
"                                .   i p a s d f g h j k         ; l 7                               ",
"                                z x c v b n m M N B V C     #   l                                   ",
"                                Z A S D F G H J K B V L       #                                     ",
"                                    l P I U Y T R B V i ;                                           ",
"                                  #     l E W Q ! ~ ^ /                                             ",
"                                            ( ) _ ` j '                                             ",
"                                .       .       ( ] [ {                                             ",
"                                          l       } V 8                                             ",
"                                        #   #     | V 7   @    .                                    ",
"                                                  ..V       #                                       ",
"                                                  X.o.                                              ",
"                                                  O.+.                                              ",
"                                                  @.#.                                              ",
"                                                  } j                                               ",
"                                                  } j                                               ",
"                                                  } [                                               ",
"                                                  $.[                                               ",
"                                                  %.j                                               ",
"                                                  } [       ;                                       ",
"                                                  } [                                               ",
"                                                  } &.                                              ",
"                                                  } &.                                              ",
"                                                  } *.                                              ",
"                                                  } *.                                              ",
"                                                  } =.                                              ",
"                                                  } =.                                              ",
"                                                  } =.    # #                                       ",
"                                                  } =.                                              ",
"                                                  %.-.                                              ",
"                                                  %.;.                                              ",
"                                                  %.;.                                              ",
"                                                  %.:.                                              ",
"                                                  >.,.                                              ",
"                                                  <.1.    ;                                         ",
"                                      ;         @ 2.3.    - l                                       ",
"                                  4.@   -         5.6.                                              ",
"                                                  7.8.        -                                     ",
"                                    ;             9.0.        .                                     ",
"                                          q.w.e.r.t.y.u.i.p.a.s.                                    ",
"                                        ; d.f.g.h.j.k.l.z.x.c.v.                                    ",
"                                          b.n.m.M.N.B.V.C.Z.A.S.                                    ",
"                                - @ ;   @ D.F.G.H.J.K.L.P.I.U.Y.                                    ",
"                                  #   T.. X R.E.W.Q.!.~.^./.(.).                                    ",
"                                        ; ; _.`.'.].[.{.}.|. X.X                                    "
};
