/* XPM */
static char *result[] = {
/* columns rows colors chars-per-pixel */
"50 50 201 2 ",
"   c gray6",
".  c #0D0C13",
"X  c #120D11",
"o  c #131313",
"O  c #19131C",
"+  c #2F211E",
"@  c #141625",
"#  c #191525",
"$  c #161925",
"%  c #1B1A24",
"&  c #1A1529",
"*  c #171828",
"=  c #24122C",
"-  c #231D2B",
";  c #221526",
":  c #2C1332",
">  c #261130",
",  c #35123C",
"<  c #39143F",
"1  c #341B39",
"2  c #39193E",
"3  c #2E172C",
"4  c #252325",
"5  c #22222C",
"6  c #2A232B",
"7  c #2B292C",
"8  c #352427",
"9  c #2A2A36",
"0  c #372734",
"q  c #2F313E",
"w  c #373839",
"e  c #461B36",
"r  c #462B27",
"t  c #4E322E",
"y  c #52352D",
"u  c #553A2F",
"i  c #462B3A",
"p  c #533630",
"a  c #65352B",
"s  c #5D4032",
"d  c #694537",
"f  c #7B573F",
"g  c #3C1443",
"h  c #3E1945",
"j  c #3F2040",
"k  c #313540",
"l  c #411646",
"z  c #421649",
"x  c #45194B",
"c  c #491A4E",
"v  c #4E1C52",
"b  c #531D55",
"n  c #561F58",
"m  c #5A1F5C",
"M  c #4F2344",
"N  c #55244A",
"B  c #572059",
"V  c #5D225D",
"C  c #5D2554",
"Z  c #443D45",
"A  c #60235F",
"S  c #713A47",
"D  c #622461",
"F  c #692767",
"G  c #6B2B66",
"H  c #742E6F",
"J  c #772D76",
"K  c #7F317B",
"L  c #245371",
"P  c #4C4C4C",
"I  c #535253",
"U  c #5B5B5B",
"Y  c #4A4B56",
"T  c #7C4147",
"R  c #7E4148",
"E  c #7F5445",
"W  c #4D5265",
"Q  c #77676B",
"!  c #747172",
"~  c #9C5B3D",
"^  c #A05E3E",
"/  c #84327E",
"(  c #8A4C49",
")  c #8C5454",
"_  c #8C5B57",
"`  c #8D544E",
"'  c #A05F43",
"]  c #836D58",
"[  c #976D54",
"{  c #9E6949",
"}  c #AD6444",
"|  c #AC6249",
" . c #BE6E4A",
".. c #B76B47",
"X. c #BE704C",
"o. c #AF7058",
"O. c #9E4F7E",
"+. c #924569",
"@. c #877A6A",
"#. c #B47F6D",
"$. c #B66E73",
"%. c #BF7373",
"&. c #B46465",
"*. c #C2724C",
"=. c #CA7D54",
"-. c #C67A50",
";. c #B9845C",
":. c #99826C",
">. c #BE8870",
",. c #B1977D",
"<. c #CE8258",
"1. c #D2855A",
"2. c #D68A5C",
"3. c #D98C5E",
"4. c #C6876A",
"5. c #D98E60",
"6. c #D38E67",
"7. c #DD9363",
"8. c #DC9668",
"9. c #D09074",
"0. c #E59C69",
"q. c #E29866",
"w. c #D9A179",
"e. c #E7A16E",
"r. c #E6A474",
"t. c #E9A775",
"y. c #E6AA7D",
"u. c #475D82",
"i. c #7C7E85",
"p. c #6F7889",
"a. c #833181",
"s. c #8C3885",
"d. c #933A8C",
"f. c #A15282",
"g. c #848587",
"h. c #8E929D",
"j. c #96979B",
"k. c #B19C98",
"l. c #A38B8B",
"z. c #BFA487",
"x. c #B8A49D",
"c. c #818CA0",
"v. c #979CA6",
"b. c #8893A5",
"n. c #A09EAB",
"m. c #9CA1A9",
"M. c #A3A4A9",
"N. c #A7ADBB",
"B. c #B0B4BF",
"V. c #BDA6A0",
"C. c #CC8685",
"Z. c #D89584",
"A. c #D6B28E",
"S. c #DAB693",
"D. c #CEAD92",
"F. c #E5AD83",
"G. c #EBAF81",
"H. c #E5AF89",
"J. c #EBB386",
"K. c #ECB589",
"L. c #EEB98D",
"P. c #E5B287",
"I. c #F0BC8F",
"U. c #F0B78A",
"Y. c #EEBD94",
"T. c #F1BE91",
"R. c #C2AAA3",
"E. c #D3BAAD",
"W. c #C7B1A6",
"Q. c #E7C09A",
"!. c #F2C196",
"~. c #F3C59A",
"^. c #F5CA9F",
"/. c #F5CBA0",
"(. c #F0C4A6",
"). c #F0CFBC",
"_. c #F4D2BB",
"`. c #EEC2A5",
"'. c #B7BEC7",
"]. c #B5C1CF",
"[. c #BEC4D0",
"{. c #C5CEDA",
"}. c #C7CDD6",
"|. c #CAD2DD",
" X c #CED3D7",
".X c #DBDADA",
"XX c #CACBCF",
"oX c #F2D8C7",
"OX c #F9E9DC",
"+X c #CFD5E1",
"@X c #D6DCE6",
"#X c #DDE0E5",
"$X c #E1E6EC",
"%X c #E6E9EF",
"&X c #FBEFE3",
"*X c #FBF2E8",
"=X c #E9ECF1",
"-X c #E7EAF1",
";X c #F6F7F7",
":X c #FDFDFD",
">X c #F6F7F9",
/* pixels */
"@ @ @ @ @ @ @ @ @ @ @ @ @ @ @ @ @ @ @ @ @ @ @ @ @ @ @ @ @ @ @ @ @ @ @ @ @ @ @ @ @ @ @ @ @ @ @ @ @ @ ",
"@ @ @ @ @ @ @ @ @ @ @ @ @ @ @ @ @ @ @ @ @ @ @ @ @ @ @ @ @ @ @ @ $ $ @ @ @ @ @ @ @ @ @ @ @ @ @ @ @ @ ",
"@ @ @ @ @ @ @ @ @ @ @ @ @ @ @ @ @ @ @ @ @ @ @ @ @ @ @ @ - n.b.p.q h.M.q @ @ @ @ @ @ @ @ @ @ @ @ @ @ ",
"@ @ @ @ @ @ @ @ @ @ @ @ @ @ @ @ @ @ * @ @ @ @ p.b.'.'.'.#X:X:X-X X>X:XY @ @ @ @ @ @ @ @ @ @ @ @ @ @ ",
"@ @ @ @ @ @ @ @ @ @ @ @ @ @ @ @ @ @ @ @ 9 W N.+X|.$X>X:X:X:X:X=X:X:X:X.X9 @ @ @ @ @ @ @ @ @ @ @ @ @ ",
"@ @ @ @ @ @ @ @ @ @ @ @ @ @ @ @ @ @ @ @ c.'.@X$X$X%X;X:X:X:X:X:X:X:X:X X9 @ @ @ @ @ @ @ @ @ @ @ @ @ ",
"@ @ @ @ @ @ @ @ @ @ @ @ @ @ @ @ @ * t E n.].+X-X$X$X=X>X>X:X:X>X:X#X'.Y @ @ @ @ @ @ @ @ @ @ @ @ @ @ ",
"@ @ @ @ @ @ @ @ @ @ @ @ @ @ @ @ @ r } X.#.'.{.{.#X{.+X+X{.{.|.|.{.h.q * @ @ @ $ @ @ @ @ @ @ @ @ @ @ ",
"@ @ @ @ @ @ @ @ @ @ @ @ @ @ @ # y ..*.-.*.>.R.R.x.R.E.E.x.x.W.k.k.l.Z @ @ $ @ @ @ @ @ @ @ @ @ @ @ @ ",
"@ @ @ @ @ @ @ @ @ @ @ @ @ @ @ y }  .=.1.1.<.q.J.P.K.K.K.K.K.P.y.J.w.[ 4 @ @ @ @ @ @ @ @ @ @ @ @ @ @ ",
"@ @ @ @ @ @ @ @ @ @ @ @ @ @ @ ^ *.=.1.3.q.q.y.^./.^.^./.^.^././.^.^.!.:.- @ @ @ @ @ @ @ @ @ @ @ @ @ ",
"@ @ @ @ @ @ @ @ @ @ @ @ @ @ u ..=.1.3.0.0.0.I.^.^.^.^././.^.^.^./.^.^.A.7 @ @ @ @ @ @ @ @ @ @ @ @ @ ",
"@ @ @ @ @ @ @ @ @ @ @ @ @ @ d *.1.3.q.0.0.y.^.^.^.S.z.z.D.~.^.^.^.^.S.,.9 @ @ @ @ @ @ @ @ @ @ @ @ @ ",
"@ @ @ @ @ @ @ @ @ @ @ @ @ 6 ~ *.2.0.0.0.e.y.^.^.Q.@.i.j.Q z.^.^.^.S.! g.! @ @ @ @ @ @ @ @ @ @ @ @ @ ",
"@ @ @ @ @ @ @ @ @ @ @ @ @ p X.1.2.0.0.0.r.!.^./.S.! ].}.h.:.^.^.^.,.i.[.b.$ @ @ @ $ @ @ @ @ @ @ @ @ ",
"@ @ @ @ @ @ @ @ @ @ * @ @ y X.=.7.0.0.0.t./.^.^.!.A.=X;X XQ.^.^.^.P.E.=Xm.@ @ @ @ @ @ @ @ @ @ @ @ @ ",
"@ @ @ @ @ @ @ @ @ @ @ @ @ y *.<.2.0.0.0.t.^.^.^.!.(.:X:X*X/././.^.J.).;Xm.@ @ @ @ @ @ @ @ @ @ @ @ @ ",
"@ @ @ @ @ @ @ @ @ @ @ @ @ y *.=.2.0.0.0.t.^.^.^.!.(.:X:X*X/.^.^.^.U._.:Xm.@ @ @ @ @ @ @ @ @ @ @ @ @ ",
"@ @ @ @ @ @ @ @ @ @ @ @ @ y  .=.5.q.0.0.t.^.^.^.~.(.:X:X&X/.^.^.^.L._.;Xm.@ $ $ @ @ @ @ @ @ @ @ @ @ ",
"@ @ @ @ @ @ @ @ @ @ @ @ @ y *.1.1.q.0.0.t.~.^.^.^.T._.OX~.^.^.^.^.~.!.oXj.@ @ $ @ @ @ @ @ @ @ @ @ @ ",
"@ @ @ @ @ @ @ @ @ @ @ @ @ 8 ' *.1.3.0.0.0.G.^.^.^.^.T.G.!.!.^.^.^.^.^.J.o.@ @ @ @ @ @ @ @ @ @ @ @ @ ",
"@ @ @ @ @ @ @ @ @ @ @ @ @ @ d  .=.q.0.0.0.y.^.^.^.^.^.^.~.F.w.J.^.^.^.y.s @ @ @ @ @ @ @ @ @ @ @ @ @ ",
"@ @ @ @ @ @ @ @ @ @ @ @ @ @ ; ^ *.2.q.0.0.e.T.^.^.^.^.^./.Y.G.I.~.^.^.6.7 @ & @ @ @ @ @ @ @ @ @ @ @ ",
"@ @ @ @ @ @ @ @ @ @ @ @ $ $ $ - } *.1.q.0.0.J.^.^.^./././.^././.^.~.A.E @ @ @ @ @ @ @ @ @ @ @ @ @ @ ",
"@ @ @ @ @ @ @ @ @ @ @ @ @ @ # % ~ } X.-.3.7.0.U.T./.^.^.T.!.L.!.Y.F.X.t & @ @ @ @ @ @ @ @ @ @ @ @ @ ",
"@ @ @ @ @ @ @ @ @ @ @ @ @ @ @ @ > N T T T T ) ) _ ] ] w.8.1.{ f E _ I a % @ @ @ @ @ @ @ @ @ @ @ @ @ ",
"@ @ @ @ @ @ @ @ @ @ @ @ @ @ @ & g g g g l c c b g : ; u s y + 3 i u.L r # @ @ @ @ @ @ @ @ @ @ @ @ @ ",
"@ @ @ @ @ @ @ @ @ @ @ @ @ @ @ # g z V B c V A A z l < < < 2 h V H i 0 # * @ @ @ @ @ @ @ @ @ @ @ @ @ ",
"@ @ @ @ @ @ @ @ @ @ @ @ @ @ @ @ g m D D n c V A A V A A A A K s.K + # @ @ @ @ @ @ @ @ @ @ @ @ @ @ @ ",
"@ @ @ @ @ @ @ @ @ @ @ @ @ @ @ # g m D D V c b A A A A D F / d.s.D @ @ @ @ @ @ @ @ @ @ @ @ @ @ @ @ @ ",
"@ @ @ @ @ @ @ @ @ @ @ @ @ @ @ @ g m D D A b l A D F D ) &.C.C.$.i @ @ @ @ @ @ @ @ @ @ @ @ @ @ @ @ @ ",
"@ @ @ @ @ @ @ @ @ @ @ @ @ @ @ # , b D K / F c c J / $.H.K.~.^.L.[ @ @ @ @ @ @ @ @ @ @ @ @ @ @ @ @ @ ",
"@ @ @ @ @ @ @ @ @ @ @ @ @ @ @ @ > c m F a.a.D c v +.w././././.~.;.@ @ @ @ @ @ @ @ @ @ @ @ @ @ @ @ @ ",
"@ @ @ @ @ @ @ @ @ @ @ @ @ @ @ @ # g c m F / / D c S w./././.^.T.4.- @ @ @ @ @ @ @ @ @ @ @ @ @ @ @ @ ",
"@ @ @ @ @ @ @ @ @ @ @ @ @ @ @ @ > g g c A F J D m S 6.T././.(.Y.4.l @ @ @ @ @ @ @ @ @ @ @ @ @ @ @ @ ",
"@ @ @ @ @ @ @ @ @ @ @ @ @ @ @ @ , g g g c m A A D V ( 8.r.T.T.Z.O.x & @ @ @ @ @ @ @ @ @ @ @ @ @ @ @ ",
"@ @ @ @ @ @ @ @ @ @ @ @ @ @ $ @ , g g g g c V A D m N ( &.%.9.f.H x : @ @ @ @ @ @ @ @ @ @ @ @ @ @ @ ",
"@ @ @ @ @ @ @ @ @ @ @ @ @ @ @ = , g g g g g x b v b c D s.a.G F x B c @ @ @ @ @ @ @ @ @ @ @ @ @ @ @ ",
"@ @ @ @ @ @ @ @ @ @ @ @ @ @ @ : g c b b g g g g g l l m F n g z B A B & @ @ @ @ @ @ @ @ @ @ @ @ @ @ ",
"@ @ @ @ @ @ @ @ @ @ @ @ @ @ @ , v V D m g g g g l c b n n b z b V V 2 @ @ @ @ @ @ @ @ @ @ @ @ @ @ @ ",
"@ @ @ @ @ @ @ @ @ @ @ @ @ @ @ , v A A A B x x l v B B B v g g B D A c # @ @ @ @ @ @ @ @ @ @ @ @ @ @ ",
"@ @ @ @ @ @ @ @ @ @ @ @ @ @ > l V D D D D V V v v g g g l g x V A m x # @ @ @ @ @ @ @ @ @ @ @ @ @ @ ",
"@ @ @ @ @ @ @ @ @ @ @ @ @ @ > c b V V V D A A A V v b b b b V D D m x > @ @ @ @ @ @ @ @ @ @ @ @ @ @ ",
"@ @ @ @ @ @ @ @ @ @ @ @ @ & , l l x x c V V V V V D D D D D D D D b l , @ @ @ @ @ @ @ @ @ @ @ @ @ @ ",
"@ @ @ @ @ @ @ @ @ @ @ @ @ = g g 2 < g g l l z l c m V D A D V n b g g , * @ @ @ @ @ @ @ @ @ @ @ @ @ ",
"@ @ @ @ @ @ @ @ @ @ @ @ @ # = = 6 7 1 1 g g c g c g c b b V z g g , : , * @ @ @ @ @ @ @ @ @ @ @ @ @ ",
"@ @ @ @ @ @ @ @ @ @ @ @ @ @ @ @ 4 4 7 7 1 1 e ; = g g g l x < < = O o # * @ @ @ @ @ @ @ @ @ @ @ @ @ ",
"@ @ @ @ @ @ @ @ @ @ @ @ @ @ @ @ % 4 w P P 7 8 @ @ @ = , < < = O o o   $ @ @ @ @ @ @ @ @ @ @ @ @ @ @ ",
"@ @ @ @ @ @ @ @ @ @ @ @ @ @ @ @ @ @ w I I P 7 $ @ @ @ . . o o o o O @ @ $ @ @ @ @ @ @ @ @ @ @ @ @ @ ",
"@ @ @ @ @ @ @ @ @ @ @ @ @ @ @ @ @ @ % 7 w U I $ $ $ @ @ . o o o   @ @ @ @ @ @ @ @ @ @ @ @ @ @ @ @ @ "
};
