/* XPM */
static char *result[] = {
/* columns rows colors chars-per-pixel */
"50 50 236 2 ",
"   c #061111",
".  c #04250B",
"X  c #062814",
"o  c #0B1427",
"O  c #141625",
"+  c #161827",
"@  c #16192A",
"#  c #1A1C2B",
"$  c #151B34",
"%  c #1D2234",
"&  c #18253A",
"*  c #11232E",
"=  c #212535",
"-  c #202538",
";  c #222A3D",
":  c #282C3B",
">  c #064F11",
",  c #056D0E",
"<  c #10452B",
"1  c #0B4A24",
"2  c #36533B",
"3  c #1D6037",
"4  c #1B2A4B",
"5  c #172745",
"6  c #1A2E53",
"7  c #242D43",
"8  c #2A2E47",
"9  c #263146",
"0  c #25314B",
"q  c #2A334B",
"w  c #2B3849",
"e  c #333848",
"r  c #2B3651",
"t  c #2D3B54",
"y  c #2E3D5A",
"u  c #263759",
"i  c #323E59",
"p  c #303B55",
"a  c #112C68",
"s  c #263965",
"d  c #273E77",
"f  c #2B4647",
"g  c #3C414D",
"h  c #36455A",
"j  c #345457",
"k  c #2A724C",
"l  c #2C4266",
"z  c #344461",
"x  c #3A4A66",
"c  c #3B4C6D",
"v  c #364868",
"b  c #3C506C",
"n  c #294478",
"m  c #344B71",
"M  c #3C5272",
"N  c #35537D",
"B  c #444958",
"V  c #4E525E",
"C  c #426757",
"Z  c #414C61",
"A  c #4C5A6D",
"S  c #465665",
"D  c #565D6A",
"F  c #425374",
"G  c #44577A",
"H  c #455A7A",
"J  c #485B79",
"K  c #505F76",
"L  c #467368",
"P  c #5B6271",
"I  c #596579",
"U  c #4E6471",
"Y  c #656E7F",
"T  c #04850B",
"R  c #07970C",
"E  c #0F881A",
"W  c #118A1E",
"Q  c #12871C",
"!  c #0C9319",
"~  c #17921D",
"^  c #23991E",
"/  c #0FAA1C",
"(  c #34A819",
")  c #189824",
"_  c #1D8138",
"`  c #1E9531",
"'  c #249B2B",
"]  c #26992B",
"[  c #329E2B",
"{  c #2A9D34",
"}  c #2B9838",
"|  c #2C9030",
" . c #17A828",
".. c #18B72B",
"X. c #1DAB33",
"o. c #1ABA30",
"O. c #27A827",
"+. c #37A92A",
"@. c #38B32C",
"#. c #2AA237",
"$. c #3CA53D",
"%. c #37A639",
"&. c #3ABC3D",
"*. c #4CB71A",
"=. c #4BB21C",
"-. c #41A92D",
";. c #46B62D",
":. c #58BB2F",
">. c #45AC3D",
",. c #47B335",
"<. c #57B835",
"1. c #18C32E",
"2. c #1AC431",
"3. c #24C333",
"4. c #30C32E",
"5. c #57D336",
"6. c #4ED237",
"7. c #6AC233",
"8. c #73CA31",
"9. c #6EE732",
"0. c #3C9446",
"q. c #2CA244",
"w. c #3AA747",
"e. c #38B351",
"r. c #40AA53",
"t. c #50B04C",
"y. c #418B66",
"u. c #44B16B",
"i. c #4EB16A",
"p. c #62B074",
"a. c #56C640",
"s. c #77CC76",
"d. c #7DD370",
"f. c #76CE56",
"g. c #2C4986",
"h. c #375482",
"j. c #485E82",
"k. c #405E94",
"l. c #466285",
"z. c #556A8B",
"x. c #576A84",
"c. c #4C6D93",
"v. c #476496",
"b. c #556D92",
"n. c #586D9B",
"m. c #5C7496",
"M. c #5F7189",
"N. c #697688",
"B. c #727985",
"V. c #677999",
"C. c #727E92",
"Z. c #616E81",
"A. c #4B6BA3",
"S. c #5A75A5",
"D. c #5977A6",
"F. c #5576B6",
"G. c #5076B0",
"H. c #637DA2",
"J. c #667AA7",
"K. c #617FBA",
"L. c #767DAB",
"P. c #69819B",
"I. c #76889B",
"U. c #6D818C",
"Y. c #57B882",
"T. c #5D89B8",
"R. c #5D84AD",
"E. c #6483AC",
"W. c #6F87AD",
"Q. c #7488A9",
"!. c #6E8EB7",
"~. c #738EB7",
"^. c #7896B9",
"/. c #7290B0",
"(. c #74A9B0",
"). c #75AA98",
"_. c #73C292",
"`. c #6C9CCB",
"'. c #7798C6",
"]. c #658FCA",
"[. c #6DA1D6",
"{. c #75A7D9",
"}. c #76B4E5",
"|. c #838E9B",
" X c #8B97A9",
".X c #839CBC",
"XX c #8B9EB9",
"oX c #909AA6",
"OX c #9CACBB",
"+X c #93A4B7",
"@X c #95B0AF",
"#X c #A2B3BB",
"$X c #99D7B2",
"%X c #859BC2",
"&X c #84A3C4",
"*X c #8AA6C9",
"=X c #94ACC8",
"-X c #98B2CC",
";X c #8BACD4",
":X c #88A8D4",
">X c #8DB1D4",
",X c #94B5DA",
"<X c #99BBDD",
"1X c #98B6D6",
"2X c #98ACDE",
"3X c #A2B5CC",
"4X c #A8B9C7",
"5X c #A4BAD7",
"6X c #AABAEE",
"7X c #AAC4DB",
"8X c #B7C7D8",
"9X c #ACD3C9",
"0X c #BEE4D9",
"qX c #9CC2E7",
"wX c #A8C9E8",
"eX c #B6CCE3",
"rX c #B8D4EA",
"tX c #C3D4DF",
"yX c #D2DDDF",
"uX c #C5EADA",
"iX c #C4DDEA",
"pX c #C6D8E4",
"aX c #C7D2F2",
"sX c #CBE0EB",
"dX c #D6EAED",
"fX c #DBEBEE",
"gX c #D4E6ED",
"hX c #C7E4F5",
"jX c #D6EAF1",
"kX c #DAEDF2",
"lX c #D3E7F0",
"zX c #DEF0F4",
"xX c #DBF2EC",
"cX c #E4EFF3",
"vX c #E5F2F4",
"bX c #F6FAFB",
/* pixels */
"O O O O O O O O O O O O O O O O O O O O O O O O O O O O O O O O O O O O O O O O O O O O O O O O O O ",
"O O O O O O O O O O O O O O O O O O O O O O + V D D e O O O O O O O O O O O O O O O O O O O O O O O ",
"O O O O O O O O O O O O O O O O O O O O O e +XpX5X:X<XI.# O O O O O O O O O O O O O O O O O O O O O ",
"O O O O O O O O O O O O O O O O O O O O # #XtXcXvX1X!.qXx.O O O O O O O O O O O O O O O O O O O O O ",
"O O O O O O O O O O O O O O O O O O + O D 7XfXvXfX^.D.'.wX= O O O O O O O O O O O O O O O O O O O O ",
"O O O O O O O O O O O O O O O O O O O @  X*XpXyX|.H J E.qXZ O O O O O O O O O O O O O O O O O O O O ",
"O O O O O O O O O O O O O O O O O O O + I.'.V.B : x i D.qXx O O O O O O O O O O O O O O O O O O O O ",
"O O O O O O O O O O O O O O O O O O O O : m.E.l.F 7 t W.,X- O O O O O O O O O O O O O O O O O O O O ",
"O O O O O O O O O O O O O O O O O O O O # V.n.M r r z.;XM.O O O O O O O O O O O O O O O O O O O O O ",
"O O O O O O O O O O O O O O O O O O O O B tX3X=XXX=X1XwX=X% O O O O O O + O O O O O O O O O O O O O ",
"O O O O O O O O O O O O O O O O O O O O : 3XlXrXeXrXwXwXP.# O O O O O O O O O O O O O O O O O O O O ",
"O O O O O O O O O O O O O O O O O O O e L.6XpXsXhXhXhX>X^.M.& O O O O O O O O O O O O O O O O O O O ",
"O O O O O O O O O O O O O O O O O O + Q.6X6X5X1X<X,X2X%X:XqXA O O O O O O O O O O O O O O O O O O O ",
"O O O O O O O O O O O O O O O O O O = J.6XaX6X2X].F.F.:X;X&XV.$ O O O O O O O O O O O O O O O O O O ",
"O O O O O O O O O O O O O O O O O O h ~.pXtXW.W.~.J.S.n.A.G.*Xe O O O O O O O O O O O O O O O O O O ",
"O O O O O O O O O O O O O O O O O # H.2XvX1X~.E.J.S.v.A.F.K.1XL.# O O O O O O O O O O O O O O O O O ",
"O O O O O O O O O O O O O O O O O % V.1XbX1X'.^.~.E.F.F.'.2X6XV.# O O O O O O O O O O O O O O O O O ",
"O O O O O O O O O O O O O O O O O O O V 8X>XD.D.A.S.J.~.%X2XS # O O O O O O O O O O O O O O O O O O ",
"O O O O O O O O O O O O O O O O O O O O I.A.a a a 4 5 0 v ;X: O O O O O + O O O O O O O O O O O O O ",
"O O O O O O O O O O O O O O O O O # # = A G.g.g.g.v v m j.1Xi # # + O O O O O O O O O O O O O O O O ",
"O O O O O O O O O O O O O O O : D +X=X+X:Xv.n n d i i z N.-X&X&XXXI e O O O O O O O O O O O O O O O ",
"O O O O O O O O O O O O O = Y yXeX1X^.S.k.n A.d v.I N.C.K G x.E.^.<XeXQ.e O O O O O O O O O O O O O ",
"O O O O O O O O O O O O e OXrX.XS.~.-X5X^.n a s u p p h v F J c F b.^.wX8Xg + O + + O + O O O O O O ",
"O O O O O O O O O O O e 8X7XE.*XiXkXfXdXdXZ.9 7 8 8 q i v G z.G F j.m.~.5XeXS + O O O O O O O O O O ",
"O O O O O O O O O O # oXrX~.1XfXkXdXgXgXgXY : 7 8 0 r h c J b.F v H b.m.b.3X4X8 O O O O O O O O O O ",
"O O O O O O O O O O P sX'.5XkXkXkXdXdXgXyXh 7 7 0 t h v G l.J t h M j.F H n.5XQ.O O O O O O O O O O ",
"O O O O O O O O O O @XeX*XdXzXkXkXkXdXyXN.9 9 q r h v b J h 0 q z x x x F M I.wX& O O O O O O O O O ",
"O O O O O O O O O O iX,XeXxXzXkXgX4XU.L V j j j C U L C 2 2 f f f w h h M u l <Xb O O O O O O O O O ",
"O O O O O O O O O B sX,XjXvXcXpX).y.p.s.p.i.i.w.$.,.,.8.8.7.<.<.-.%.t.0.j 5 6 ].(.+ + O O O O o O O ",
"O O O O O O O O O B.hX>XrXzX9XY.u.u.s.d.i.q.w.{ ) ' ' ] ,.f.t.%.;.@.+.#.` & 4 %X3X+ O O O O O O O O ",
"O O O O O O O O O N.hX>X(._.i.e.q.q.w.w.%.} #.] w.#.` ) #.t.%.%.;.@.@.+.~ < 4 XX4XO O O O O O O O O ",
"O O O O O O O O + g 0X<X(.9X$Xr.r.w.$.#.#.{ ] ] $.#.[ %.$.>.$.%.>.[ +.;.R 1 4 3XoXO O O O O O O O O ",
"O O O O O O O O O O rX=XP.0XsX` ] ] ] +.-.<.<.7.8.8.7.:.5.-.O.~ ~ ~ @.( ! < u >XB @ O O O O O O O O ",
"O O O O O O O O O O I.8XK $X0X| *.+.W ~ ^ ^ ( =.=.=.=.( ^ ~ O.....1./ R , * h.].% O O O O O O O O O ",
"O O O O O O O O O O D pX/.L &. .,.w.W W Q Q Q W W W , )  .4.9.6.o...R R 1 5 G.l.O O O O O O O O O O ",
"O O O O O O O O O O + P -Xz.k o.o. .) ! ~ ~ W )  .X.2.3.o.6.9.6.O.R R , * h.c.- O O O O O O O O O O ",
"O O O O O O O O O O O = P.^.U k X.o.2.o.3.5.&.1.1.1.2.2.2.3.&.] R T > o n l.& O + O O + O O O O O O ",
"O O O O O O O O O O O O = N.W.M j _ X.2.3.6.&.2.2.2.2.2.../ R T , X @ n h.5 O O O O O O O O O O O O ",
"O O O O O O O O O O O O O - A b.H t f 3 _ `  ...../ / R T , > X o 4 m z % + O O O O O O O O O O O O ",
"O O O O O O O O O O O O O O O 0 r u & & o   X X . . .       o 5 s N y @ + + O O + O O O O O O O O O ",
"O O O O O O O O O O O O O O O O O % 0 0 % 0 @     o o o 5 n s b H % O O O O O O O O O O O O O O O O ",
"O O O O O O O O O O O O O O O O O # h J A P g B S P D P P I A v.b O O O O O O O O O O O O O O O O O ",
"O O O O O O O O O O O O O O O O + A ~.z.#X8XI.S 8 : 7 9 9 w 5 m G.% O O O O O O O O O O O O O O O O ",
"O O O O O O O O O O O O O O O O : -XV.OXdXjXgXyX Xq 0 r q t $ 5 T.v O O O O O + O O O O O O O O O O ",
"O O O O O O O O O O O O O O O @ U.1Xm.0XfXdXdXgXI.p t p y 9 o $ R.T.% @ O O O O O O O O O O O O O O ",
"O O O O O O O O O O O O O O O # I.wX^.m. X+X+Xx.h i i y & $ 5 j.}.T.% O O O O O O O O O O O O O O O ",
"O O O O O O O O O O O O O O O O # J '.{.T.c.l.m v z s F l.R.[.[.v.% O O O O O O O O O O O O O O O O ",
"O O O O O O O O O O O O O O O O O O # b c.c.R.`.[.{.{.{.[.v.N $ @ O O O O o O O O O O O O O O O O O ",
"O O O O O O O O O O O O O O O O O O O O O O O O O O O O O O O O O O O O O O O O O O O O O O O O O O ",
"O O O O O O O O O O O O O O O O O O O O O O O O O O O O O O O O O O O O O O O O O O O O O O O O O O "
};
