/* XPM */
static char *result[] = {
/* columns rows colors chars-per-pixel */
"50 50 133 2 ",
"   c #C4551D",
".  c #B04C1A",
"X  c #0D0804",
"o  c gray1",
"O  c #843A15",
"+  c #AE4D1A",
"@  c #B04C1B",
"#  c #AE4D18",
"$  c #B14D1B",
"%  c #9D4517",
"&  c #0C0703",
"*  c #030305",
"=  c #020202",
"-  c #9C4317",
";  c #BB511D",
":  c #C6551D",
">  c #C5561E",
",  c #190C06",
"<  c #1A0B06",
"1  c #190B08",
"2  c #1A0D07",
"3  c #160B09",
"4  c #040402",
"5  c #160B07",
"6  c #170C08",
"7  c #180D07",
"8  c #1E1007",
"9  c #231107",
"0  c #221107",
"q  c #221006",
"w  c #170C06",
"e  c #040404",
"r  c #020403",
"t  c #030301",
"y  c #020305",
"u  c #040203",
"i  c #0D0805",
"p  c #050402",
"a  c #0A0603",
"s  c #0C0904",
"d  c #0C0704",
"f  c #030102",
"g  c #9A4316",
"h  c #1B0C05",
"j  c #662D10",
"k  c #9B4315",
"l  c #9B4216",
"z  c #994215",
"x  c #9A4318",
"c  c #944117",
"v  c #833914",
"b  c #6E3112",
"n  c #110906",
"m  c #753512",
"M  c #843A17",
"N  c #853A13",
"B  c #C3551A",
"V  c #C4551E",
"C  c #C3541C",
"Z  c #C4561B",
"A  c #A44817",
"S  c #9D4418",
"D  c #C3561D",
"F  c #833B15",
"G  c #160B05",
"H  c #B14B1A",
"J  c #C3561B",
"K  c #853B16",
"L  c #231208",
"P  c #853915",
"I  c #903E16",
"U  c #8F3D15",
"Y  c #8F4015",
"T  c #A5491A",
"R  c #A44819",
"E  c #A64717",
"W  c #1F0E07",
"Q  c #703112",
"!  c #6D3013",
"~  c #140B06",
"^  c #974317",
"/  c #050304",
"(  c #090504",
")  c #C1541C",
"_  c #B04C18",
"`  c #592710",
"'  c #642C11",
"]  c #B74F1C",
"[  c #C6551B",
"{  c #632B10",
"}  c #A64719",
"|  c #C2551C",
" . c #C7561E",
".. c #C5561F",
"X. c #662D12",
"o. c #692D13",
"O. c #863A16",
"+. c #843A13",
"@. c #8C3D16",
"#. c #53250E",
"$. c #030504",
"%. c #31150A",
"&. c #2D1509",
"*. c #2C1408",
"=. c #291308",
"-. c #050400",
";. c #241208",
":. c #2D150B",
">. c #2C1609",
",. c #2E160A",
"<. c #200F07",
"1. c #BC521E",
"2. c #BA521D",
"3. c #B9511C",
"4. c #0B0803",
"5. c #913F17",
"6. c #BA501C",
"7. c #B9511A",
"8. c #7C3813",
"9. c #AF4B19",
"0. c #9A4415",
"q. c #2B1508",
"w. c #0E0906",
"e. c #180B05",
"r. c #431E0C",
"t. c #3C1B0A",
"y. c #0B0602",
"u. c #060503",
"i. c #39190A",
"p. c #612B0F",
"a. c #632D11",
"s. c #5C290E",
"d. c white",
/* pixels */
"                                          . X o o .                                           O o o ",
"                                          . X o o .                                           O o o ",
"                                          . X o o .                                           O o o ",
"                                          . X o o .                                           O o o ",
"                                          . X o o .                                           O o o ",
"                                          . X o o .                                           O o o ",
"                                          . X o o .                                           O o o ",
"                                          . X o o .                                           O o o ",
". . . . . . . . . . + . . @ . . . . # $ . % & * = - . . . . . . . ; :               >         O o o ",
", , , , , , , , , , , , < , 1 2 , , , < , 3 4 o o 5 , 6 , , 2 , 7 8 9 9 9 9 9 9 9 9 9 0 9 q 9 w o o ",
"o o o o o o o o e o o = o o o r o o o o o o o o o t o = o y o o * o o e o e = o o o o o o u o o o o ",
"X X X X X X X X i p o = a s X X X X X X X X X X X d o o o t o f * u o o o o o o o o o o o o o o o o ",
"g g g g g g g g g h o o j g k g g g g g g l z g x c v O O O O O O O b o o n m O O M O M O O O N O O ",
"                  9 o o O   : B V   V   C                       Z   A e o w . :   V     > Z         ",
"                  9 o y v           C             > C   V     C     S t o 7 .       D         Z     ",
"                  9 o o O     D     D   V     Z     : :     :       F o o w .   V                   ",
"    D             q o o O   Z                                     D v o o G .                       ",
"              :   9 o o O                                           F o o w H J                     ",
"  >             : q o o O   V                                       K o o w .                       ",
"              D   L o o O   Z                                   :   O o o G .                       ",
"    :             9 o o P                                           v r o w H                       ",
"I U Y T A R R E R W o o Q R R R R R R R R R R R R R R R R R R R R A ! o o ~ ^ . . . . . . . . . . . ",
"o r o e = o e / o o o o o o o r o o o o o o o o o o o o o o o o o o o o * o ( s X X X X X X X X X X ",
"o o o o o o o o u e o o o o * o o o o o o o o o o o o o o o o o = o r o o o o o o o o o o o o o o o ",
"o o o o o o o o o o o o o o o o o = o o o o o o o o r o o u o o o o o o o o o o o o o o = o o o o o ",
"                                    >   > R * o o .   C     ) @ . . . . . . . . . . _ . . . . ` o o ",
"                                          R o * o . C                                 :       ' o o ",
"                                    C     R o o o ]         D                   D       Z [   { o o ",
"                                :   J     R o o =         :                               V   ' o o ",
"                                  Z     D R t o o V > V                           C   V V     ' o o ",
"                                : Z   C   R o o *     :   > >                   V :         > ' o o ",
"                                  Z       R r o o       : V   C                       J     Z ' o o ",
"                                          } u o o >   > Z     V       :       Z         V     ' o o ",
":         |    .  Z V   :   >   Z       : } r o o     >       ..          >     D             ' o o ",
"' { ' ' ' ' X.o.O O M O O O O O O O O.O O ! o o o O O O O O O O F v O v O F +.O O O v @.A R } #.o o ",
"o o o o o o o o o o o o o o o o * o o r o o o t o o * o $.o o o o o o t o o o o o o o o o o o u o o ",
"o o o o o o o o o e = o o = o o * o o o o o o e o u o = o o o o r = o o o o o o o o e o o o o u o o ",
"%.&.*.&.&.&.&.&.=.( = -.;.&.&.&.&.&.&.*.&.:.&.&.>.&.&.&.&.&.&.&.&.,.<.o * ( w w w 7 w w w w w w w w ",
"1.2.3.3.3.3.3.3.R w o 4.5.3.3.3.3.6.3.3.7.3.3.7.3.3.3.3.2.6.3.3.3.7.8.o o =.T 9.. . 9.. 9.. . _ . . ",
"                . , o X g : D D               C                     O o e :.3.  C         V   C     ",
"                . 1 o X 0.                                        D O o o &.3.                      ",
"                . , o X g                                       >   O o t &.3.                    C ",
"                H , o X g                                           O o * q.2.Z                     ",
"                9., = X g   V                                       F o o *.6.                  :   ",
"                . , u X g                                           +.o o &.3.                  V   ",
"                . , o w.g                                         C O o o &.3.                      ",
"                $ e.u X g                                           O = o &.3.                    Z ",
"r.r.r.r.r.r.r.r.t.y.u u.i.p.' ' ' ' ' ' ' ' ' ' ' ' ' ' ' ' ' ' ' a.r.o o , s.' ' ' ' ' ' ' ' ' ! O ",
"o o o o o o o o o o o o o o o o o o o o o o o o o o o o o o o o o o o o o o o o o o o o o o o o o o ",
"o o o o o o o o o o o o o o o o o o o o o o o o o o o o o o o o o o o o o o o o o o o o o o o o o o "
};
